<?xml version="1.0" encoding="UTF-8"?>
<svg id="Layer_2" data-name="Layer 2" xmlns="http://www.w3.org/2000/svg" viewBox="0 0 512 512">
  <defs>
    <style>
      .cls-1 {
        fill: #fff;
      }

      .cls-2 {
        fill: none;
      }
    </style>
  </defs>
  <g id="Layer_1-2" data-name="Layer 1">
    <g>
      <rect class="cls-2" width="512" height="512"/>
      <g>
        <path class="cls-1" d="M431.72,267.82c-39.11-21.86-155.8-23.6-202.75-22.33-33.68.91-127.74,6.11-153.41,25.31-29.18,21.83-3.28,102.49,12.89,129.08,47.02,77.32,103.89,53.72,166.85,84.99,13.23,6.57,19.57,28.95,32.51,27.02,6.78-1.01,73.93-43.23,83.81-50.64,17.91-13.44,34.44-27.77,46.72-46.7,20.3-31.31,53.02-124.57,13.39-146.72Z"/>
        <path class="cls-1" d="M274.49,81.77c4.34-10.98,40.92-58.21,36.4-64.76-15.48-3.26-38.16-21.4-54.08-16.03-11.78,3.97-18.91,66.67-18.93,80.77-93.17,1.76-242.96,54.96-198.91,174.73,96.66-34.48,204.92-38.48,306.59-28.43,44.69,4.42,88.02,16.26,132.23,22.65,25.74-117.23-110.17-164.72-203.29-168.94Z"/>
      </g>
    </g>
  </g>
</svg>