<?xml version="1.0" encoding="UTF-8"?>
<svg id="Layer_2" data-name="Layer 2" xmlns="http://www.w3.org/2000/svg" viewBox="0 0 753.36 186.48">
  <defs>
    <style>
      .cls-1 {
        fill: #fff;
      }
    </style>
  </defs>
  <g id="Layer_1-2" data-name="Layer 1">
    <g>
      <path class="cls-1" d="M133.63,89.32c-13.04-7.29-51.96-7.87-67.62-7.45-11.23.3-42.6,2.04-51.16,8.44-9.73,7.28-1.09,34.18,4.3,43.05,15.68,25.79,34.65,17.91,55.65,28.35,4.41,2.19,6.53,9.65,10.84,9.01,2.26-.34,24.66-14.42,27.95-16.89,5.97-4.48,11.49-9.26,15.58-15.58,6.77-10.44,17.68-41.55,4.47-48.93Z"/>
      <path class="cls-1" d="M81.19,27.27c1.45-3.66,13.65-19.41,12.14-21.6-5.16-1.09-12.73-7.14-18.04-5.35-3.93,1.33-6.31,22.23-6.31,26.94-31.07.59-81.03,18.33-66.34,58.27,32.24-11.5,68.34-12.83,102.25-9.48,14.9,1.47,29.35,5.42,44.1,7.55,8.58-39.1-36.74-54.94-67.8-56.34Z"/>
      <path class="cls-1" d="M253.28,64.36c0-5.34-1.16-10.09-3.47-14.25-2.31-4.16-5.88-7.98-10.7-11.47-4.11-2.87-9.39-4.98-15.86-6.31-1.64-.31-3.18-.49-4.62-.54-1.44-.05-2.88-.08-4.31-.08l-30.65,1.08h-20.33l-7.55,19.4,2.46.15c5.13.52,8.26,3.39,9.39,8.62.72,2.98,1.08,11.91,1.08,26.8v6.78c0,13.04-.39,21.36-1.16,24.95-.77,3.59-2.34,5.39-4.7,5.39l-7.08,18.33h53.9l7.24-18.33h-3.7c-6.06,0-9.96-.99-11.7-2.97-1.75-1.98-2.62-6.31-2.62-12.99l.15-3.6,2.31.62h4.62c6.47,0,11.63-.39,15.48-1.16s7.72-2.39,11.63-4.85c4.62-2.77,8.52-6.24,11.7-10.4,3.18-4.16,5.44-8.7,6.78-13.63,1.13-4.31,1.69-8.16,1.69-11.55ZM219.86,67.36v2.6c0,4.19-.54,7.15-1.6,8.89-1.07,1.74-2.06,2.81-2.98,3.22s-2.7.61-5.35.61c-1.94,0-4.23-.31-6.88-.92l-3.52-1.07v-22.83c0-1.74.67-3.17,2-4.29,1.33-1.12,3.08-1.69,5.24-1.69,1.23,0,2.46.15,3.7.46l2,.77c4.31,2.15,6.78,6.29,7.39,12.41v1.84Z"/>
      <path class="cls-1" d="M330.21,66.19c-7.6-6.76-18.12-10.15-31.57-10.15-5.13,0-10.93.57-17.4,1.69-9.55,1.74-17.4,6.79-23.56,15.14-6.16,8.35-9.24,17.86-9.24,28.52,0,14.35,2.51,24.78,7.55,31.28,5.03,6.51,14.32,10.58,27.87,12.22,2.46.31,4.82.46,7.08.46,14.68,0,26.8-4.92,36.34-14.76,9.55-9.84,14.32-21.88,14.32-36.13,0-12.09-3.8-21.52-11.4-28.29ZM306.87,113.82c-1.18,2.76-3.93,4.55-8.24,5.37-2.05.31-3.85.46-5.39.46-8.62,0-12.94-5.37-12.94-16.1,0-7.67.82-12.88,2.46-15.64,1.64-2.76,3.75-4.27,6.31-4.52,2.57-.26,4.62-.39,6.16-.39,8.93,0,13.4,4.35,13.4,13.04s-.59,15.03-1.77,17.79Z"/>
      <path class="cls-1" d="M390.11,124.88c-.1,0-.36.1-.77.31h-.92c-.82,0-2.16-.1-4-.31-1.85-.2-3.31-1.16-4.39-2.85-1.08-1.69-1.85-4.85-2.31-9.48-.46-4.62-.69-17.51-.69-38.67,0-9.04.28-18.13.85-27.27.56-9.14,1.36-18.85,2.39-29.12-10.27,3.08-20.89,5.85-31.88,8.32l-9.55,2-5.7,15.1,1.54.15c5.44.82,8.7,3.06,9.78,6.7,1.08,3.65,1.62,14.15,1.62,31.5v23.42c0,4.62-.05,7.81-.15,9.55-.1,1.75-.26,3.08-.46,4-.21,2.16-.62,3.65-1.23,4.47-.62.82-1.75,1.54-3.39,2.16l-.92.31-6.93,18.02h50.05l7.08-18.33Z"/>
      <path class="cls-1" d="M472.82,59.74h-33.21l-7.24,18.96c2.14.51,3.98,1.64,5.51,3.39,1.53,1.75,2.3,3.54,2.3,5.39,0,1.03-.1,1.75-.31,2.16l-6.78,17.56.31.92-.46-.62-8.32-20.64-.46-2.31c0-3.39.92-5.34,2.77-5.87l7.24-18.94h-46.05l-7.24,18.66,1.39.31c3.8,1.23,6.36,3.03,7.7,5.4l.62,1.23.92,1.85,27.26,58.77c-1.44,4.11-4.37,7.4-8.78,9.87-2.46,1.34-4.6,2.18-6.39,2.55-1.8.36-4.9.54-9.32.54h-2.77l-10.47,27.57h5.54c9.55,0,16.79-.41,21.71-1.23,4.93-.83,8.8-2.24,11.63-4.24,2.82-2.01,5.21-4.17,7.16-6.48,1.95-2.31,3.33-4.55,4.16-6.71l28.49-74.47,6.62-17.27,3.23-8.17,3.23-8.17Z"/>
      <path class="cls-1" d="M561.36,59.74h-36.16l-7.26,19.1c.72-.1,1.9.05,3.54.46,3.9,1.54,5.84,4.77,5.84,9.7v4.93l-.78,2.62-3.61,9.39-.47,1.54-1.57,4.16-8.16-20.79c-1.47-3.7-2.2-6.21-2.2-7.55,0-.92.31-1.64.92-2.16l.77-.62.62-.77c.62-.62,1.28-.82,2-.62l7.55-19.4h-47.59l-7.55,19.4c2.67,0,5.03,1.34,7.08,4l1.23,1.54.92,1.39c3.18,5.03,5.95,10.11,8.32,15.25,2.36,5.13,4.24,9.42,5.62,12.86,1.39,3.44,2.59,7.01,3.62,10.7l3.08,10.78.77,2.77,1.85,6.01,29.57-1.23c2.77-10.68,5.7-20.12,8.78-28.34,3.08-8.21,9.45-23.51,19.1-45.89l4.16-9.24Z"/>
      <path class="cls-1" d="M633.21,66.19c-7.6-6.76-18.12-10.15-31.57-10.15-5.13,0-10.93.57-17.4,1.69-9.55,1.74-17.4,6.79-23.56,15.14-6.16,8.35-9.24,17.86-9.24,28.52,0,14.35,2.51,24.78,7.55,31.28,5.03,6.51,14.32,10.58,27.87,12.22,2.46.31,4.82.46,7.08.46,14.68,0,26.8-4.92,36.34-14.76,9.55-9.84,14.32-21.88,14.32-36.13,0-12.09-3.8-21.52-11.4-28.29ZM609.88,113.82c-1.18,2.76-3.93,4.55-8.24,5.37-2.05.31-3.85.46-5.39.46-8.62,0-12.94-5.37-12.94-16.1,0-7.67.82-12.88,2.46-15.64,1.64-2.76,3.75-4.27,6.31-4.52,2.57-.26,4.62-.39,6.16-.39,8.93,0,13.4,4.35,13.4,13.04s-.59,15.03-1.77,17.79Z"/>
      <path class="cls-1" d="M724.38,80.01l.92-.46.62-.31,2.62-.46,7.39-19.19h-29.1l-7.39,19.56c.62.1,1.18.49,1.69,1.16.51.67.77,1.41.77,2.23,0,1.54-.98,3.13-2.93,4.77l-1.54,1.08-1.39.62-.62.31-1.08-.62-.31-.47-1.08-1.41-4.31-4.84-.62-1.25c-.31-.94-.07-1.69.71-2.26.78-.57,1.57-.86,2.37-.86l.82.02,6.98-18.04h-47.85l-7.54,19.4c1.85,0,3.64.57,5.39,1.71l2.16,1.71,22.33,25.12-15.86,13.49c-1.75,1.45-4.06,2.48-6.93,3.1h-2.16l-7.39,19.1h31.57l7.24-18.79h-1.39c-1.03-.2-1.64-.72-1.85-1.54l-.15-.62c0-.1.05-.26.15-.46.1-.1.26-.36.46-.77l6.01-5.08,1.23-.92.62.98,4.93,6.52,1.23,1.63c.31.76.14,1.41-.49,1.96h-.65c-.88.31-1.7.28-2.46-.09l-6.62,17.18h43.02l7.09-18.79h-1.54l-.62-.31h-.46c-1.03-.52-2.11-1.34-3.23-2.48l-19.71-23.06,15.25-15.78,3.7-2.78Z"/>
      <polygon class="cls-1" points="744.77 60.07 739.12 60.07 738.93 60.97 741.26 60.97 739.54 69.07 740.53 69.07 742.25 60.97 744.58 60.97 744.77 60.07"/>
      <path class="cls-1" d="M751.61,60.07l-3.28,7c-.2.44-.36.89-.51,1.34h-.02c.07-.58.11-.95.09-1.33l-.27-7.02h-1.76l-1.91,9h1l1.57-7.39c.08-.38.14-.78.22-1.16h.02c0,.49.01.79.03,1.1l.3,7.45h1.19l3.44-7.34c.16-.35.31-.68.53-1.21h.02c-.06.38-.16.76-.24,1.14l-1.57,7.41h1l1.91-9h-1.75Z"/>
    </g>
  </g>
</svg>